<svg width="14" height="14" viewBox="0 0 14 14" fill="none" xmlns="http://www.w3.org/2000/svg">
<path d="M12.5436 8.53749C11.562 8.81277 10.5247 8.82179 9.53842 8.56363C8.55211 8.30546 7.65229 7.78943 6.93137 7.06851C6.21045 6.34759 5.69442 5.44777 5.43626 4.46146C5.1781 3.47516 5.18712 2.43791 5.46239 1.45624C4.49456 1.72562 3.61419 2.24388 2.90898 2.95938C2.20377 3.67489 1.69833 4.56268 1.44301 5.53432C1.18769 6.50595 1.19139 7.52753 1.45375 8.49729C1.71611 9.46706 2.22797 10.3512 2.93835 11.0615C3.64872 11.7719 4.53282 12.2838 5.50259 12.5461C6.47235 12.8085 7.49393 12.8122 8.46556 12.5569C9.4372 12.3015 10.325 11.7961 11.0405 11.0909C11.756 10.3857 12.2743 9.50532 12.5436 8.53749Z" stroke="black" stroke-linecap="round" stroke-linejoin="round"/>
</svg>
